<?xml version="1.0" encoding="UTF-8" standalone="no"?>
<svg
   width="256"
   height="256"
   fill="none"
   viewBox="0 0 256 256"
   version="1.1"
   id="svg3"
   sodipodi:docname="vulkan.svg"
   inkscape:version="1.4.2 (ebf0e940d0, 2025-05-08)"
   xmlns:inkscape="http://www.inkscape.org/namespaces/inkscape"
   xmlns:sodipodi="http://sodipodi.sourceforge.net/DTD/sodipodi-0.dtd"
   xmlns="http://www.w3.org/2000/svg"
   xmlns:svg="http://www.w3.org/2000/svg">
  <defs
     id="defs3">
    <inkscape:path-effect
       effect="fillet_chamfer"
       id="path-effect3"
       is_visible="true"
       lpeversion="1"
       nodesatellites_param="F,0,0,1,0,0,0,1 @ F,0,0,1,0,0,0,1 @ F,0,0,1,0,0,0,1 @ F,0,0,1,0,0,0,1 @ F,0,0,1,0,0,0,1 @ F,0,0,1,0,1.1347725,0,1 @ F,0,0,1,0,0,0,1 @ F,0,0,1,0,0,0,1 @ F,0,0,1,0,0,0,1"
       radius="0"
       unit="px"
       method="auto"
       mode="F"
       chamfer_steps="1"
       flexible="false"
       use_knot_distance="true"
       apply_no_radius="true"
       apply_with_radius="true"
       only_selected="false"
       hide_knots="false" />
  </defs>
  <sodipodi:namedview
     id="namedview3"
     pagecolor="#ffffff"
     bordercolor="#000000"
     borderopacity="0.25"
     inkscape:showpageshadow="2"
     inkscape:pageopacity="0.0"
     inkscape:pagecheckerboard="0"
     inkscape:deskcolor="#d1d1d1"
     showguides="true"
     inkscape:zoom="2.2097087"
     inkscape:cx="72.407734"
     inkscape:cy="133.50176"
     inkscape:window-width="1920"
     inkscape:window-height="1008"
     inkscape:window-x="0"
     inkscape:window-y="0"
     inkscape:window-maximized="1"
     inkscape:current-layer="svg3" />
  <rect
     width="256"
     height="256"
     fill="#00599C"
     rx="60"
     id="rect1"
     style="fill:#ac162c;fill-opacity:1" />
  <path
     id="path1-3"
     style="display:inline;fill:#ffffff;fill-opacity:1;stroke-width:0.652242"
     d="m 53.06794,45.24358 9.447321,29.184019 C 66.53107,73.526371 80.125522,70.787207 98.689222,70.36255 L 90.733654,45.24358 Z m 112.19967,0 -10.18236,31.917831 c 10.88528,3.075355 21.97609,7.397188 32.82485,13.367147 l 15.02196,-45.284977 z m -51.19337,73.68937 c -12.23717,0.48828 -24.397375,2.69558 -34.603231,7.87276 l 27.177611,83.95071 h 41.37789 l 27.69864,-83.4972 c -5.23721,-1.50918 -18.46367,-5.02185 -34.38668,-7.00523 l -13.47033,42.22759 z" />
  <path
     style="display:inline;fill:#ffffff;fill-opacity:1;stroke-width:1;stroke-dasharray:none"
     d="M 309.43786,156.33164 C 281.17079,130.32634 210.63246,81.729679 89.922673,94.467895 8.5126707,103.0589 -25.031501,158.14132 29.297448,204.31055 c 11.444406,9.72556 32.795004,22.63425 50.193714,31.0999 5.199678,2.52999 13.379895,6.52558 18.019539,7.72174 1.874941,0.48338 3.033079,0.70157 3.746119,0.79176 0.61538,0.0778 1.22737,-0.53062 0.92914,-1.02563 -0.43505,-0.72212 -1.4382,-1.94287 -3.636924,-3.99897 -12.420371,-11.61462 -38.057124,-36.9509 -33.722295,-57.98238 8.870793,-43.03882 90.899179,-75.39364 255.055129,-8.09966 3.9101,1.6029 -0.16653,-7.03054 -10.44401,-16.48567 z"
     id="path2-6"
     sodipodi:nodetypes="ssssscssss"
     inkscape:path-effect="#path-effect3"
     inkscape:original-d="M 309.43786,156.33164 C 281.17079,130.32634 210.63246,81.729679 89.922673,94.467895 8.5126707,103.0589 -25.031501,158.14132 29.297448,204.31055 c 11.444406,9.72556 32.795004,22.63425 50.193714,31.0999 5.199678,2.52999 13.379895,6.52558 18.019539,7.72174 4.489569,1.15747 4.869239,0.79439 4.869239,0.79439 0,0 1.13994,-0.37884 -3.830904,-5.02723 -12.420371,-11.61462 -38.057124,-36.9509 -33.722295,-57.98238 8.870793,-43.03882 90.899179,-75.39364 255.055129,-8.09966 3.9101,1.6029 -0.16653,-7.03054 -10.44401,-16.48567 z"
     transform="matrix(0.65224224,0,0,0.65224224,22.296862,18.322602)" />
</svg>
